<svg xmlns="http://www.w3.org/2000/svg" viewBox="0 0 1200 1200" width="1200" height="1200" role="img" aria-label="Window and plants placeholder illustration">
  <defs>
    <linearGradient id="wash" x1="0" y1="0" x2="1" y2="1">
      <stop offset="0%" stop-color="#F7EFE2"/>
      <stop offset="55%" stop-color="#DDE7E3"/>
      <stop offset="100%" stop-color="#89a59c"/>
    </linearGradient>
    <pattern id="tile" width="52" height="52" patternUnits="userSpaceOnUse" patternTransform="rotate(0)">
      <rect width="52" height="52" fill="none"/>
      <path d="M0 0 L52 0 L0 52 Z" fill="#234639" opacity="0.13"/>
    </pattern>
  </defs>

  <rect width="1200" height="1200" fill="url(#wash)"/>

  <circle cx="600" cy="600" r="528" fill="#2F5D50" opacity="0.13"/>
  <circle cx="168.00000000000003" cy="192" r="108" fill="#234639" opacity="0.16"/>
  <circle cx="1032" cy="983.9999999999999" r="156" fill="#2F5D50" opacity="0.18"/>

  <g transform="rotate(8 600 600)">
    
    <g fill="#234639">
      <path d="M285 885 v-285
        a315 315 0 0 1 630 0 v285 z" opacity="0.9"/>
      <rect x="561" y="375" width="78" height="90" rx="15" fill="#F7EFE2" opacity="0.5"/>
      <rect x="375" y="660" width="450" height="30" rx="15" fill="#2F5D50"/>
      <rect x="408" y="690" width="27" height="195" rx="13.5" opacity="0.75"/>
      <rect x="765" y="690" width="27" height="195" rx="13.5" opacity="0.75"/>
      <g stroke="#234639" stroke-width="10.5" opacity="0.6" stroke-linecap="round">
        <path d="M456 315 v66"/>
        <path d="M744 315 v66"/>
      </g>
      <circle cx="456" cy="402" r="39" opacity="0.85"/>
      <circle cx="744" cy="402" r="39" opacity="0.85"/>
    </g>
  </g>

  <rect width="1200" height="1200" fill="url(#tile)"/>

  <rect x="0" y="0" width="1200" height="1200" fill="none" stroke="#234639" stroke-width="3" opacity="0.18"/>
</svg>
